<?xml version="1.0" encoding="utf-8"?>
<!-- Generator: Adobe Illustrator 16.0.0, SVG Export Plug-In . SVG Version: 6.00 Build 0)  -->
<!DOCTYPE svg PUBLIC "-//W3C//DTD SVG 1.1//EN" "http://www.w3.org/Graphics/SVG/1.1/DTD/svg11.dtd">
<svg version="1.1" id="Lager_1" xmlns="http://www.w3.org/2000/svg" xmlns:xlink="http://www.w3.org/1999/xlink" x="0px" y="0px"
	 width="128px" height="128px" viewBox="0 0 128 128" enable-background="new 0 0 128 128" xml:space="preserve">
<g>
	<g>
		<defs>
			<rect id="SVGID_1_" x="-363.522" y="-358.888" width="851.958" height="851.958"/>
		</defs>
		<clipPath id="SVGID_2_">
			<use xlink:href="#SVGID_1_"  overflow="visible"/>
		</clipPath>
		<g clip-path="url(#SVGID_2_)">
			<defs>
				<rect id="SVGID_3_" x="-363.522" y="-358.888" width="851.958" height="851.958"/>
			</defs>
			<clipPath id="SVGID_4_">
				<use xlink:href="#SVGID_3_"  overflow="visible"/>
			</clipPath>
			<path clip-path="url(#SVGID_4_)" fill-rule="evenodd" clip-rule="evenodd" fill="#1D1D1B" d="M16.601,9.511
				c31.074,0.087,62.234,0.087,93.396,0.173c0.174,0.173,0.347,0.347,0.434,0.52v69.507c0,7.617,0,15.32-0.087,22.938
				c-0.434,2.076-1.731,4.066-2.856,5.539c-4.674,5.888-22.505,8.223-31.421,10.474c-3.116,0.778-6.233,1.472-9.349,2.251
				c-1.299,0.78-1.817,2.424-2.856,3.548c-0.347-0.086-0.78-0.086-1.125-0.172c-1.298-0.606-1.472-2.771-3.03-3.55l-8.569-1.817
				c-9.781-2.511-25.708-4.328-32.026-10.04c-4.155-3.722-3.117-13.678-3.117-21.468c0-18.437-0.086-36.787-0.086-55.223V15.743
				C15.908,13.666,15.475,10.636,16.601,9.511"/>
			<path clip-path="url(#SVGID_4_)" fill-rule="evenodd" clip-rule="evenodd" fill="#FFFFFF" d="M18.244,11.762
				c0,23.458,0.087,46.915,0.087,70.372c0,7.703-1.213,20.428,2.164,24.756c2.771,3.462,9.868,5.021,15.061,6.318
				c8.483,1.904,22.852,4.501,24.93,5.28c2.164,0.692,2.077,1.645,3.029,2.424c1.558-3.116,7.185-3.203,10.907-4.241
				c6.405-1.559,12.725-3.116,19.13-4.675c4.066-1.038,7.704-1.559,10.474-3.635c5.713-4.415,4.241-14.629,4.241-24.496
				c-0.087-24.063-0.087-48.127-0.175-72.104H18.244z"/>
			<path clip-path="url(#SVGID_4_)" fill-rule="evenodd" clip-rule="evenodd" fill="#1D1D1B" d="M45.251,16.868
				c1.558,0.086,9.175,6.232,9.953,7.444c-0.087,0.173-0.087,0.346-0.172,0.606c-3.462,1.904-6.146,5.799-8.397,9.002
				c-0.778,1.038-1.471,2.077-2.164,3.116c0.606,2.164,3.375,4.068,4.674,5.8c4.588,5.453,9.175,10.993,13.676,16.532
				c1.645-0.52,3.116-3.289,4.155-4.587c3.29-3.809,6.579-7.617,9.866-11.425c1.474-1.645,3.031-3.376,4.502-5.021
				c-0.605-1.211-1.211-2.337-1.816-3.549c-2.338-3.895-4.675-7.444-8.916-9.435c-0.174-1.818,7.617-7.011,9.262-8.137
				c0.52,0,0.606,0.086,0.865,0.173c2.251,4.674,4.589,9.262,6.838,13.849c0-0.087,0.086-0.173,0.086-0.26
				c0.261-0.346,0.606-0.692,0.867-0.952c-1.126-1.731-1.905-3.289-0.087-4.847c1.559,0.086,2.856,1.039,3.635,0.606
				c0.521-0.693,1.039-1.298,1.559-1.904h0.432c1.904,1.558,3.809,3.116,5.713,4.674c-0.086,1.125-1.299,2.337-1.99,2.856
				c0.866,0.952,2.078,1.644,1.645,3.548c-1.211,1.818-3.202,0.434-4.587-0.173c-0.346,0.866-2.942,2.856-2.51,3.549
				c1.038,1.645,2.077,3.376,3.116,5.021c2.597,4.327,4.674,9.261,5.8,14.974c0.431,2.165,0.865,8.829-1.126,9.262
				c-4.761-7.443-9.608-14.801-14.37-22.245c-0.086,0.087-0.172,0.173-0.346,0.173c-4.24,5.193-8.57,10.387-12.896,15.494
				c-1.211,1.558-3.636,3.202-4.241,5.28c7.703,8.916,15.407,17.918,23.024,26.92c1.385,1.558,2.683,3.116,4.068,4.674
				c1.645,1.039,3.808,0.692,4.067,3.203c-0.953,3.289-2.683,4.589-6.145,5.452c-0.606,0.174-1.559,0.435-2.165,0.261
				c-1.559-0.779-1.211-1.991-1.989-3.376c-1.646-1.904-3.29-3.896-4.935-5.8c-7.099-8.31-14.195-16.705-21.38-25.014
				c-3.289,3.98-6.665,7.962-9.954,11.856c-5.54,6.492-11.08,12.985-16.619,19.477c-0.52,1.385-0.434,2.077-1.126,3.03
				c-4.501,0.259-9.001-2.252-9.088-6.58c0.952-1.904,3.981-2.335,5.539-4.327c6.059-7.098,12.119-14.196,18.178-21.38
				c1.558-1.99,7.011-6.925,7.617-9.089C51.57,58.763,45.77,51.837,39.884,45c0,0.087-0.086,0.087-0.173,0.087l-10.386,15.84
				c-1.039,1.645-2.338,4.934-3.982,5.886H24.39c-1.211-2.597-1.211-6.925-0.346-10.041c1.645-5.972,5.886-14.975,9.521-19.129
				c-0.952-1.125-1.991-2.25-2.943-3.462c-1.384,0.952-4.327,1.991-4.24-1.039c0.519-0.692,1.039-1.385,1.558-2.077
				c-0.605-0.779-1.125-1.558-1.645-2.424c0.519-2.25,3.375-4.155,5.279-5.107c1.039,0.346,1.991,1.645,2.597,2.424
				c0.779-0.52,1.731-1.039,2.943-0.866c0.433,0.434,0.779,0.606,1.039,1.212c0.605,1.298-0.434,2.337-0.867,2.943
				c0.346,0.433,0.78,0.952,1.213,1.385c0.172-0.087,0.346-0.26,0.519-0.433c0.952-2.078,2.684-3.895,3.722-6.146
				C43.606,21.716,44.385,19.292,45.251,16.868"/>
			<path clip-path="url(#SVGID_4_)" fill-rule="evenodd" clip-rule="evenodd" fill="#E30613" d="M45.944,18.6
				c-0.953,6.579-5.107,10.82-8.224,15.148c-3.462,4.847-6.405,9.954-9.262,15.494c-2.164,4.242-4.414,9.349-3.462,15.667h0.173
				c0,0,0.087-0.087,0.173-0.087c2.51-3.809,5.02-7.53,7.444-11.339c2.163-3.203,4.242-6.492,6.406-9.694
				c2.25-3.635,3.981-7.358,6.405-10.82c1.644-2.078,3.375-4.155,5.02-6.232c0.693-0.866,2.164-1.385,2.683-2.51
				C50.877,22.322,48.367,20.504,45.944,18.6"/>
			<path clip-path="url(#SVGID_4_)" fill-rule="evenodd" clip-rule="evenodd" fill="#E30613" d="M79.786,18.859
				c-2.51,1.904-5.02,3.809-7.617,5.713c0.087,0.087,0.175,0.173,0.261,0.346c5.368,1.991,7.443,8.396,10.213,13.157
				c5.8,9.002,11.6,18.004,17.4,27.007c1.558-14.196-8.223-23.978-13.418-32.546c-1.731-3.549-3.549-7.185-5.279-10.733
				C80.825,20.851,80.565,19.465,79.786,18.859"/>
			<path clip-path="url(#SVGID_4_)" fill-rule="evenodd" clip-rule="evenodd" fill="#E30613" d="M31.401,25.092
				c-1.211,1.211-2.597,1.904-3.636,3.375c1.385,3.116,4.588,5.28,6.492,7.963c0.087,0,0.174-0.087,0.259-0.087
				c1.039-1.558,2.078-3.029,3.203-4.587C36.681,30.285,32.959,25.871,31.401,25.092"/>
			<path clip-path="url(#SVGID_4_)" fill-rule="evenodd" clip-rule="evenodd" fill="#E30613" d="M93.896,25.438
				c-1.212,2.683-4.762,4.328-5.54,7.185c0.953,1.471,1.991,2.856,2.943,4.241c0.26-0.173,0.433-0.346,0.691-0.52
				c2.078-2.423,4.069-4.934,6.146-7.357c-0.087-0.173-0.173-0.26-0.26-0.433C96.578,27.515,95.194,26.477,93.896,25.438"/>
			<path clip-path="url(#SVGID_4_)" fill-rule="evenodd" clip-rule="evenodd" fill="#E30613" d="M36.162,26.303
				c-0.347,0.259-0.693,0.433-1.039,0.693c0.433,0.433,0.779,0.779,1.126,1.211c0.259-0.173,0.432-0.346,0.692-0.606
				c0-0.173,0.086-0.433,0.086-0.605c-0.173-0.26-0.347-0.434-0.519-0.693H36.162z"/>
			<path clip-path="url(#SVGID_4_)" fill-rule="evenodd" clip-rule="evenodd" fill="#E30613" d="M88.789,26.563
				c-0.086,0.26-0.173,0.606-0.26,0.866c0.347,0.519,0.605,0.952,0.952,1.471c0-0.086,0.086-0.086,0.174-0.086
				c0.347-0.52,0.778-1.125,1.125-1.645c-0.087,0-0.26-0.086-0.347-0.173C89.916,26.823,89.31,26.65,88.789,26.563"/>
			<path clip-path="url(#SVGID_4_)" fill-rule="evenodd" clip-rule="evenodd" fill="#E30613" d="M28.718,32.103
				c-0.432,0.779-0.952,0.692-1.038,1.818c0.952,0.086,1.298-0.346,1.99-0.693c-0.172-0.173-0.259-0.259-0.432-0.433
				C29.064,32.536,28.891,32.362,28.718,32.103"/>
			<path clip-path="url(#SVGID_4_)" fill-rule="evenodd" clip-rule="evenodd" fill="#E30613" d="M96.927,32.536
				c-0.348,0.433-0.692,0.779-1.039,1.125c0.085,0.086,0.085,0.173,0.085,0.26c0.606,0.26,1.214,0.52,1.819,0.779
				c0.172-0.173,0.347-0.259,0.519-0.346C98.052,33.574,97.617,32.882,96.927,32.536"/>
			<path clip-path="url(#SVGID_4_)" fill-rule="evenodd" clip-rule="evenodd" fill="#E30613" d="M43.605,38.595
				c-0.606,1.472-3.722,4.761-2.336,5.886c4.068,4.761,8.049,9.521,12.118,14.369c1.384,1.644,3.116,4.934,5.107,5.886
				c1.212-1.472,2.423-2.856,3.549-4.242v-0.172c-4.416-5.194-8.83-10.387-13.244-15.667C47.674,43.182,45.165,39.374,43.605,38.595
				"/>
			<path clip-path="url(#SVGID_4_)" fill-rule="evenodd" clip-rule="evenodd" fill="#E30613" d="M81.95,39.547
				c-6.318,7.357-12.725,14.628-19.127,21.899c-10.56,12.378-21.121,24.841-31.682,37.22c-0.864,1.039-2.856,0.951-3.809,1.992
				c0.347,2.249,4.329,6.231,7.271,4.847c1.039-3.637,3.377-5.28,5.453-7.878c3.203-3.808,6.406-7.531,9.521-11.34
				c11.86-14.022,23.631-28.13,35.404-42.153C84.029,42.576,82.989,41.104,81.95,39.547"/>
			<path clip-path="url(#SVGID_4_)" fill-rule="evenodd" clip-rule="evenodd" fill="#E30613" d="M67.323,67.158
				c-1.213,1.472-2.425,2.856-3.548,4.328c6.665,7.877,13.417,15.842,20.081,23.718c2.077,2.423,4.156,4.848,6.233,7.357
				c0.692,0.951,0.604,2.25,1.47,2.942c3.289-0.173,6.059-1.558,6.58-4.675c-1.127-0.952-2.079-0.952-3.463-1.73
				c-5.974-7.012-12.033-14.022-18.005-21.034C73.556,74.43,70.439,70.795,67.323,67.158"/>
		</g>
	</g>
</g>
</svg>
